<svg xmlns="http://www.w3.org/2000/svg" viewBox="0 0 800 600" fill="none">
  <!-- Design System - Layered rectangles and typography grid -->
  <rect width="800" height="600" fill="#0a0a0a"/>

  <!-- Large geometric shapes -->
  <rect x="100" y="120" width="300" height="200" stroke="#ffffff" stroke-width="0.5" fill="none" opacity="0.2"/>
  <rect x="120" y="140" width="300" height="200" stroke="#ffffff" stroke-width="0.5" fill="none" opacity="0.3"/>
  <rect x="140" y="160" width="300" height="200" fill="#CDFF00" opacity="0.06"/>

  <!-- Stacked lines representing text/components -->
  <g opacity="0.4">
    <rect x="500" y="150" width="200" height="8" fill="#ffffff" rx="4"/>
    <rect x="500" y="180" width="160" height="8" fill="#ffffff" rx="4" opacity="0.6"/>
    <rect x="500" y="210" width="180" height="8" fill="#ffffff" rx="4" opacity="0.4"/>
  </g>

  <!-- Component blocks -->
  <rect x="500" y="280" width="100" height="80" stroke="#CDFF00" stroke-width="1" fill="#CDFF00" fill-opacity="0.05"/>
  <rect x="620" y="280" width="100" height="80" stroke="#ffffff" stroke-width="0.5" fill="none" opacity="0.3"/>

  <rect x="500" y="380" width="220" height="60" stroke="#ffffff" stroke-width="0.5" fill="none" opacity="0.2"/>
  <rect x="510" y="390" width="80" height="40" fill="#CDFF00" opacity="0.1"/>

  <!-- Accent circle -->
  <circle cx="200" cy="450" r="60" stroke="#CDFF00" stroke-width="1" fill="none" opacity="0.5"/>
  <circle cx="200" cy="450" r="30" fill="#CDFF00" opacity="0.1"/>

  <!-- Cross marks -->
  <g stroke="#ffffff" stroke-width="1" opacity="0.3">
    <line x1="350" y1="480" x2="370" y2="500"/>
    <line x1="370" y1="480" x2="350" y2="500"/>
  </g>

  <!-- Corner accent -->
  <path d="M700 100 L750 100 L750 150" stroke="#CDFF00" stroke-width="1" fill="none" opacity="0.6"/>
  <circle cx="750" cy="100" r="4" fill="#CDFF00"/>
</svg>