<svg xmlns="http://www.w3.org/2000/svg" viewBox="0 0 800 600" fill="none">
  <!-- Interactive Dashboard - Data visualization aesthetic -->
  <rect width="800" height="600" fill="#0a0a0a"/>

  <!-- Chart-like bars -->
  <g opacity="0.8">
    <rect x="100" y="400" width="40" height="100" fill="#CDFF00" opacity="0.6"/>
    <rect x="160" y="350" width="40" height="150" fill="#CDFF00" opacity="0.4"/>
    <rect x="220" y="280" width="40" height="220" fill="#CDFF00" opacity="0.8"/>
    <rect x="280" y="320" width="40" height="180" fill="#CDFF00" opacity="0.5"/>
    <rect x="340" y="250" width="40" height="250" fill="#CDFF00" opacity="0.7"/>
    <rect x="400" y="300" width="40" height="200" fill="#ffffff" opacity="0.2"/>
  </g>

  <!-- Connecting lines (data flow) -->
  <path d="M120 380 Q200 200, 320 230 T520 180" stroke="#CDFF00" stroke-width="1.5" fill="none" opacity="0.5"/>
  <path d="M120 400 Q220 250, 350 280 T550 220" stroke="#ffffff" stroke-width="0.5" fill="none" opacity="0.3"/>

  <!-- Data points -->
  <circle cx="120" cy="380" r="6" fill="#CDFF00"/>
  <circle cx="220" cy="220" r="4" fill="#CDFF00" opacity="0.8"/>
  <circle cx="320" cy="230" r="5" fill="#CDFF00"/>
  <circle cx="420" cy="200" r="4" fill="#CDFF00" opacity="0.6"/>
  <circle cx="520" cy="180" r="6" fill="#CDFF00"/>

  <!-- Circular gauge element -->
  <circle cx="650" cy="200" r="80" stroke="#ffffff" stroke-width="0.5" fill="none" opacity="0.2"/>
  <path d="M650 120 A80 80 0 1 1 580 250" stroke="#CDFF00" stroke-width="3" fill="none" stroke-linecap="round"/>
  <circle cx="650" cy="200" r="4" fill="#ffffff"/>

  <!-- Grid dots -->
  <g fill="#ffffff" opacity="0.2">
    <circle cx="550" cy="350" r="2"/>
    <circle cx="580" cy="350" r="2"/>
    <circle cx="610" cy="350" r="2"/>
    <circle cx="640" cy="350" r="2"/>
    <circle cx="670" cy="350" r="2"/>
    <circle cx="700" cy="350" r="2"/>
    <circle cx="550" cy="380" r="2"/>
    <circle cx="580" cy="380" r="2"/>
    <circle cx="610" cy="380" r="2"/>
    <circle cx="640" cy="380" r="2"/>
    <circle cx="670" cy="380" r="2"/>
    <circle cx="700" cy="380" r="2"/>
    <circle cx="550" cy="410" r="2"/>
    <circle cx="580" cy="410" r="2"/>
    <circle cx="610" cy="410" r="2"/>
    <circle cx="640" cy="410" r="2"/>
    <circle cx="670" cy="410" r="2"/>
    <circle cx="700" cy="410" r="2"/>
  </g>

  <!-- Number indicator -->
  <text x="630" y="210" font-family="system-ui" font-size="24" fill="#CDFF00" font-weight="300">87</text>

  <!-- Axis lines -->
  <line x1="80" y1="500" x2="450" y2="500" stroke="#ffffff" stroke-width="0.5" opacity="0.3"/>
  <line x1="80" y1="500" x2="80" y2="200" stroke="#ffffff" stroke-width="0.5" opacity="0.3"/>
</svg>